<svg width="536" height="137" viewBox="0 0 536 137" fill="none" xmlns="http://www.w3.org/2000/svg">
<path d="M48.899 119.644C45.8389 119.644 16 120.407 16 89.0403C16 72.2081 32.8322 63.027 35.8924 63.027C29.7715 63.027 16.7649 54.6109 16.7649 38.5441C16.7634 23.3318 29.0066 11 48.899 11H73.382V24.7715H68.0265V16.3559H48.899C32.8322 16.3559 22.8858 26.3024 22.8858 37.0138C22.8858 56.9062 40.4829 59.9664 44.3085 59.9664V66.8521C40.8417 66.8521 22.1193 71.4426 22.1193 89.0413C22.1193 113.524 46.6023 114.29 48.8975 114.29H68.025V106.637H73.3804V119.644L48.899 119.644Z" fill="#1A1818" stroke="#1A1818" stroke-width="0.125" stroke-miterlimit="10"/>
<path d="M106.282 119.645C109.342 119.645 139.181 120.408 139.181 89.0413C139.181 72.209 122.349 63.028 119.289 63.028C125.41 63.028 138.416 54.6119 138.416 38.5451C138.416 23.3333 126.175 11.0015 106.282 11.0015H81.7993V24.773H87.1547V16.3569H106.282C122.349 16.3569 132.296 26.3033 132.296 37.0147C132.296 56.9071 114.698 59.9673 110.873 59.9673V66.8531C114.34 66.8531 133.062 71.4436 133.062 89.0423C133.062 113.525 108.579 114.291 106.284 114.291H87.1547V106.638H81.7993V119.645L106.282 119.645Z" fill="#1A1818" stroke="#1A1818" stroke-width="0.125" stroke-miterlimit="10"/>
<path d="M80.8467 31.5005H74.3354V38.0117H80.8467V31.5005Z" fill="#191717"/>
<path d="M80.8467 41.4502H74.3354V47.9614H80.8467V41.4502Z" fill="#FFCC33"/>
<path d="M80.8467 51.3999H74.3354V57.9111H80.8467V51.3999Z" fill="#191717"/>
<path d="M80.8467 61.3477H74.3354V67.8589H80.8467V61.3477Z" fill="#FFCC33"/>
<path d="M80.8467 71.2959H74.3354V77.8071H80.8467V71.2959Z" fill="#191717"/>
<path d="M80.8467 81.2456H74.3354V87.7568H80.8467V81.2456Z" fill="#FFCC33"/>
<path d="M80.8467 91.1938H74.3354V97.7051H80.8467V91.1938Z" fill="#191717"/>
<path d="M165.959 12.5317V119.645H172.08V66.0886H194.432V61.5683H172.08V12.5317H165.959Z" fill="#1A1818"/>
<path d="M228.862 12.5317V119.645H222.741V66.0886H214.926V61.5683H222.741V12.5317H228.862Z" fill="#1A1818"/>
<path d="M251.596 12.5317L289.904 69.9142L329.864 12.5317H323.716L289.904 59.9678L258.576 12.5317H251.596Z" fill="#1A1818"/>
<path d="M292.607 80.624H286.845V119.644H292.607V80.624Z" fill="#1A1818"/>
<path d="M343.74 12.5317L390.898 125.001L438.958 12.5317H433.225L391.349 111.005L350.222 12.5317H343.74Z" fill="#1A1818"/>
<path d="M459.147 12.5317H508.004V17.0337H464.633V114.29H508.004V119.645H459.147V12.5317Z" fill="#1A1818"/>
<path d="M490.057 61.4961H477.354V66.0866H490.057V61.4961Z" fill="#1A1818"/>
</svg>
